<?xml version="1.0" encoding="utf-8"?>
<!-- Generator: Adobe Illustrator 20.1.0, SVG Export Plug-In . SVG Version: 6.00 Build 0)  -->
<svg version="1.1" id="Layer_1" xmlns="http://www.w3.org/2000/svg" xmlns:xlink="http://www.w3.org/1999/xlink" x="0px" y="0px"
	 viewBox="0 0 600 558" style="enable-background:new 0 0 600 558;" xml:space="preserve">
<style type="text/css">
	.st0{fill:#56C2B6;}
</style>
<path class="st0" d="M35.1,87.6L31,114.5h-7.8l13.4-81.4h11.1l14,81.4h-8.2l-4.4-26.9H35.1z M48.2,80.4c-3.2-18.9-5.2-32.9-6-40.2
	h-0.4c-0.2,6.2-3.3,24.7-5.6,40.2H48.2z"/>
<g>
	<path class="st0" d="M89.7,96.3V99c0,6.6,2.7,9.7,7.2,9.7c5.1,0,7.1-3.2,7.1-9.3c0-6.5-2-9.3-8.9-13.9c-8.2-5.5-11.9-9.7-11.9-18.3
		c0-8.9,4-15.6,14-15.6c10.7,0,13.9,7.1,13.9,15.8v2.9h-7.7v-3.3c0-5.5-1.5-8.8-6.3-8.8c-4.4,0-6.2,3-6.2,8.2s1.6,7.4,7.9,11.6
		c8.7,5.7,13,10.1,13,20.2c0,11.1-4.8,17.1-15.2,17.1c-11.6,0-14.6-7.9-14.6-16.3v-2.8H89.7z"/>
	<path class="st0" d="M120,29.4h7.7v28.9c1.6-3.5,5.2-6.6,11.3-6.6c9.1,0,11.9,6.9,11.9,15.8v46.9h-7.8v-45c0-5.4-0.6-10.6-6.8-10.6
		c-7.1,0-8.7,5.5-8.7,14.9v40.7H120V29.4z"/>
	<path class="st0" d="M189.5,104.3c0,4.3,0.1,8.5,0.2,10.2h-7.2c-0.4-1.6-0.6-4-0.6-5.1c-1.9,4.8-5.8,6.1-10.1,6.1
		c-8.8,0-12.3-7.8-12.3-17.3v-1.1c0-13.8,8.3-18.9,19.3-18.9h2.9V67.9c0-5.7-1-9.5-6.1-9.5c-5,0-6.5,3.9-6.5,8.9v1.8h-7.7v-1.7
		c0-8.5,3.4-15.7,14.4-15.7c10.5,0,13.6,6.8,13.6,15.7V104.3z M182,84.5h-3.3c-7.3,0-11.6,3-11.6,12.3v1.1c0,5.7,1.7,10.5,6.8,10.5
		c6.1,0,8-4.9,8-14.4V84.5z"/>
	<path class="st0" d="M221.8,61.5c-7.8,0-12.8,5.1-12.8,15.8v37.2h-7.7V73.8c0-10,0-15.8-0.1-21.1h7.4c0.1,1.7,0.2,5.2,0.2,9.5
		c2.2-7.4,7.6-10.2,12.9-10.4V61.5z"/>
	<path class="st0" d="M234.5,85v10.4c0,6.5,1.2,13.4,7.7,13.4c6.1,0,7.3-4.9,7.3-11.2v-0.5h7.6v0.5c0,7.3-1.7,17.9-14.9,17.9
		c-12.3,0-15.4-8.2-15.4-20.7V71.1c0-9.6,3.4-19.4,15.5-19.4c11.6,0,14.9,8.8,14.9,19.4V85H234.5z M249.7,78.5v-8
		c0-5.7-0.9-12.1-7.6-12.1c-6.2,0-7.7,5.4-7.7,12.2v7.9H249.7z"/>
	<path class="st0" d="M296.5,29.4v69.5c0,6.8,0,12.1,0.1,15.6h-7.4c-0.1-1.1-0.4-4.5-0.4-6.1c-1.5,3.7-4.3,7.1-10.7,7.1
		c-10.2,0-12.9-8-12.9-19.9V70c0-11,4.4-18.3,13.9-18.3c5.5,0,8.4,2.4,9.6,4.6V29.4H296.5z M273,95.7c0,8.3,2.2,12.6,7.3,12.6
		c6.8,0,8.4-6.6,8.4-15.4V72.2c0-6.8-0.7-13.3-8.2-13.3c-5.2,0-7.6,4.4-7.6,11.5V95.7z"/>
</g>
<g>
	<path class="st0" d="M352.5,95.2v0.9c0,10.5-2.7,19.4-14.9,19.4c-11.6,0-14.6-8-14.6-20.5V70.3c0-10.5,3.9-18.5,15.1-18.5
		c12.1,0,14.4,8.9,14.4,17.2v2.6h-7.7v-1.9c0-5.8-1-11.1-6.8-11.1c-5.1,0-7.2,3.8-7.2,11.6v26.4c0,6,1.2,12.3,6.9,12.3
		c5.1,0,7.1-3.4,7.1-11.8v-1.7H352.5z"/>
	<path class="st0" d="M381.2,61.5c-7.8,0-12.8,5.1-12.8,15.8v37.2h-7.7V73.8c0-10,0-15.8-0.1-21.1h7.4c0.1,1.7,0.2,5.2,0.2,9.5
		c2.2-7.4,7.6-10.2,12.9-10.4V61.5z"/>
	<path class="st0" d="M393.9,85v10.4c0,6.5,1.2,13.4,7.7,13.4c6.1,0,7.3-4.9,7.3-11.2v-0.5h7.6v0.5c0,7.3-1.7,17.9-14.9,17.9
		c-12.3,0-15.4-8.2-15.4-20.7V71.1c0-9.6,3.4-19.4,15.5-19.4c11.6,0,14.9,8.8,14.9,19.4V85H393.9z M409.1,78.5v-8
		c0-5.7-0.9-12.1-7.6-12.1c-6.2,0-7.7,5.4-7.7,12.2v7.9H409.1z"/>
	<path class="st0" d="M452.9,104.3c0,4.3,0.1,8.5,0.2,10.2h-7.2c-0.4-1.6-0.6-4-0.6-5.1c-2,4.8-5.8,6.1-10.1,6.1
		c-8.8,0-12.3-7.8-12.3-17.3v-1.1c0-13.8,8.3-18.9,19.3-18.9h2.9V67.9c0-5.7-1-9.5-6.1-9.5c-5,0-6.5,3.9-6.5,8.9v1.8h-7.7v-1.7
		c0-8.5,3.4-15.7,14.4-15.7c10.5,0,13.6,6.8,13.6,15.7V104.3z M445.3,84.5H442c-7.3,0-11.6,3-11.6,12.3v1.1c0,5.7,1.7,10.5,6.8,10.5
		c6.1,0,8-4.9,8-14.4V84.5z"/>
	<path class="st0" d="M458.5,52.7h7.2V37.5h7.7v15.2h8.9v6.9h-8.9v42.6c0,3.2,0.6,6.5,4.5,6.5c1.2,0,3-0.1,4-0.4v6.1
		c-1.8,0.6-4.5,0.9-6.6,0.9c-5.5,0-9.6-2.6-9.6-11.7v-44h-7.2V52.7z"/>
	<path class="st0" d="M489.1,29.4h7.8v12.4h-7.8V29.4z M489.1,52.7h7.7v61.8h-7.7V52.7z"/>
	<path class="st0" d="M512.5,52.7c1.8,10,7.8,41.7,9.1,52.9h0.1c0.9-10.1,7.6-42,9.4-52.9h7.9l-13.2,61.8H517l-12.8-61.8H512.5z"/>
	<path class="st0" d="M551.9,85v10.4c0,6.5,1.2,13.4,7.7,13.4c6.1,0,7.3-4.9,7.3-11.2v-0.5h7.6v0.5c0,7.3-1.7,17.9-14.9,17.9
		c-12.3,0-15.4-8.2-15.4-20.7V71.1c0-9.6,3.4-19.4,15.5-19.4c11.6,0,14.9,8.8,14.9,19.4V85H551.9z M567.2,78.5v-8
		c0-5.7-0.9-12.1-7.6-12.1c-6.2,0-7.7,5.4-7.7,12.2v7.9H567.2z"/>
</g>
<g>
	<path class="st0" d="M63.3,216.1v26.3c0,13.5-6.3,19.3-15.8,19.3S32,256.1,32,242.8V216c0-11.6,6-18,15.8-18
		C58.1,198,63.3,204.7,63.3,216.1z M39.8,216v27.2c0,7.1,2.4,11.6,7.8,11.6c5,0,7.8-3.4,7.8-11.7v-27.2c0-6.3-2.2-11-7.7-11
		S39.8,208.9,39.8,216z"/>
	<path class="st0" d="M74.9,260.7v-54.8h-6.6v-6.9h6.6v-9.5c0-7.2,2.2-14.3,12.1-14.3c1.2,0,2.6,0.1,3.5,0.4v7.2
		c-0.7-0.1-1.6-0.2-2.4-0.2c-4.6,0-5.4,3.2-5.4,7.8v8.7H96v-9.3c0-7.2,2.2-14.5,12.1-14.5c1.2,0,2.6,0.1,3.4,0.4v7.2
		c-0.7-0.1-1.6-0.2-2.3-0.2c-4.5,0-5.4,3.4-5.4,7.9v8.5h8v6.9h-8v54.8H96v-54.8H82.7v54.8H74.9z"/>
	<path class="st0" d="M117.8,175.7h7.8v12.4h-7.8V175.7z M117.8,198.9h7.7v61.8h-7.7V198.9z"/>
	<path class="st0" d="M164.9,241.5v0.9c0,10.5-2.7,19.4-14.9,19.4c-11.6,0-14.6-8-14.6-20.5v-24.7c0-10.5,3.9-18.5,15.1-18.5
		c12.1,0,14.4,8.9,14.4,17.2v2.6h-7.7v-1.9c0-5.8-1-11.1-6.8-11.1c-5.1,0-7.2,3.8-7.2,11.6v26.4c0,6,1.2,12.3,6.9,12.3
		c5.1,0,7.1-3.4,7.1-11.8v-1.7H164.9z"/>
	<path class="st0" d="M180.3,231.2v10.4c0,6.5,1.2,13.4,7.7,13.4c6.1,0,7.3-4.9,7.3-11.2v-0.5h7.6v0.5c0,7.3-1.7,17.9-14.9,17.9
		c-12.3,0-15.4-8.2-15.4-20.7v-23.6c0-9.6,3.4-19.4,15.5-19.4c11.6,0,14.9,8.8,14.9,19.4v13.9H180.3z M195.5,224.8v-8
		c0-5.7-0.9-12.1-7.6-12.1c-6.2,0-7.7,5.4-7.7,12.2v7.9H195.5z"/>
</g>
<g>
	<path class="st0" d="M298.2,268.6c0-7.6-2.9-12.6-6.5-17.3c-5.1,5.8-12.7,10.6-26,10.6c-19.4,0-34.9-6.1-34.9-22.8
		c0-10.4,4.9-17.3,19.1-20.5c-6.8-6.2-10.7-12.4-10.7-21.1c0-16.7,13.8-23.5,28-23.5c17.1,0,24.4,6.7,24.4,16.2
		c0,8.4-6.2,15.1-19.6,19.7c2.7,1.8,5.8,3.9,9.5,6.2c6.5,4.1,13,8.3,18.5,13.5c1.3-6.2,2-12.2,2.1-17.8h-9.6v-2.4h21.2v2.4h-8.5
		c-0.1,6.9-0.7,13.8-2.3,20.6c5.8,6.5,10.6,12.8,10.6,24.7c0,17.4-14.5,33.9-30.3,33.9c-10.6,0-16.7-4.6-16.7-12.3
		c0-6.1,4.3-10.2,10.1-10.2c6.2,0,9.7,3,9.7,8.8c0,1.2-0.2,2.7-0.7,4.4h-4.3c-1.2,3.7-0.5,6.5,4.4,6.5
		C294.1,288.3,298.2,278.9,298.2,268.6z M289.7,248.8c-4-4.3-8.4-7.8-15.7-12.7c-8.9-5.8-16.5-10.6-22.2-15.6
		c-1.2,2.6-1.8,6.8-1.8,15.2c0,17.3,6.8,23,19.3,23C279.2,258.8,285.6,254.3,289.7,248.8z M270,208.6c7.6-4,7.7-9.5,7.7-17.5
		c0-9.7-3.7-14.4-10.6-14.4c-5.1,0-11.2,2.6-11.2,12.4C255.8,196.6,258.9,200.9,270,208.6z"/>
</g>
<g>
	<path class="st0" d="M346.4,260.7v-54.8h-6.6v-6.9h6.6v-9.4c0-7.3,2.7-14.4,12.2-14.4c1.5,0,3,0.1,4,0.4v7.2
		c-1.1-0.1-1.8-0.2-2.9-0.2c-4.5,0-5.5,3.2-5.5,7.9v8.5h8v6.9h-8v54.8H346.4z"/>
	<path class="st0" d="M368.2,260.7v-85.1h7.7v85.1H368.2z"/>
	<path class="st0" d="M393.4,231.2v10.4c0,6.5,1.2,13.4,7.7,13.4c6.1,0,7.3-4.9,7.3-11.2v-0.5h7.6v0.5c0,7.3-1.7,17.9-14.9,17.9
		c-12.3,0-15.4-8.2-15.4-20.7v-23.6c0-9.6,3.4-19.4,15.5-19.4c11.6,0,14.9,8.8,14.9,19.4v13.9H393.4z M408.6,224.8v-8
		c0-5.7-0.9-12.1-7.6-12.1c-6.2,0-7.7,5.4-7.7,12.2v7.9H408.6z"/>
	<path class="st0" d="M428.9,198.9c4.8,12.9,7.1,19.1,8.2,22.5h0.1c1.5-4.3,4.6-11.6,8.7-22.5h8l-12.4,28.9l12.6,32.9h-8.3
		c-5.1-13.6-7.6-21.7-8.7-25h-0.1c-1.2,3.7-4.4,12.4-8.8,25H420l12.7-31.9l-12.3-29.9H428.9z"/>
	<path class="st0" d="M459.9,175.7h7.8v12.4h-7.8V175.7z M459.9,198.9h7.7v61.8h-7.7V198.9z"/>
	<path class="st0" d="M479.4,175.7h7.7v29c1.7-3.8,5.1-6.7,11.1-6.7c8.8,0,12.4,7.2,12.4,17.7v24.5c0,12.3-2.7,21.4-13.8,21.4
		c-5.7,0-8.8-2.9-10.2-6.9c0,2.6-0.1,4.1-0.4,6.1h-6.9c0.1-3.3,0.1-8.9,0.1-16.5V175.7z M502.8,216.9c0-7.4-1.8-11.7-7.2-11.7
		c-7.4,0-8.5,7.3-8.5,16.1v18.6c0,10,2.3,14.5,8.2,14.5c5,0,7.6-4,7.6-13V216.9z"/>
	<path class="st0" d="M520.6,260.7v-85.1h7.7v85.1H520.6z"/>
	<path class="st0" d="M545.8,231.2v10.4c0,6.5,1.2,13.4,7.7,13.4c6.1,0,7.3-4.9,7.3-11.2v-0.5h7.6v0.5c0,7.3-1.7,17.9-14.9,17.9
		c-12.3,0-15.4-8.2-15.4-20.7v-23.6c0-9.6,3.4-19.4,15.5-19.4c11.6,0,14.9,8.8,14.9,19.4v13.9H545.8z M561.1,224.8v-8
		c0-5.7-0.9-12.1-7.6-12.1c-6.2,0-7.7,5.4-7.7,12.2v7.9H561.1z"/>
</g>
<g>
	<path class="st0" d="M129.8,354c-7.8,0-12.8,5.1-12.8,15.8V407h-7.7v-40.7c0-10,0-15.8-0.1-21.1h7.4c0.1,1.7,0.2,5.2,0.2,9.5
		c2.2-7.4,7.6-10.2,12.9-10.4V354z"/>
	<path class="st0" d="M142.4,377.5v10.4c0,6.5,1.2,13.4,7.7,13.4c6.1,0,7.3-4.9,7.3-11.2v-0.5h7.6v0.5c0,7.3-1.7,17.9-14.9,17.9
		c-12.3,0-15.4-8.2-15.4-20.7v-23.6c0-9.6,3.4-19.4,15.5-19.4c11.6,0,14.9,8.8,14.9,19.4v13.9H142.4z M157.7,371v-8
		c0-5.7-0.9-12.1-7.6-12.1c-6.2,0-7.7,5.4-7.7,12.2v7.9H157.7z"/>
	<path class="st0" d="M169.7,345.2h7.2v-15.2h7.7v15.2h8.9v6.9h-8.9v42.7c0,3.2,0.6,6.5,4.5,6.5c1.2,0,3-0.1,4-0.4v6.1
		c-1.8,0.6-4.5,0.9-6.6,0.9c-5.5,0-9.6-2.6-9.6-11.7v-44h-7.2V345.2z"/>
	<path class="st0" d="M228.1,396.7c0,4.3,0.1,8.5,0.2,10.2h-7.2c-0.4-1.6-0.6-4-0.6-5.1c-1.9,4.8-5.8,6.1-10.1,6.1
		c-8.8,0-12.3-7.8-12.3-17.3v-1.1c0-13.8,8.3-18.9,19.3-18.9h2.9v-10.2c0-5.7-1-9.5-6.1-9.5c-5,0-6.5,3.9-6.5,8.9v1.8h-7.7v-1.7
		c0-8.5,3.4-15.7,14.4-15.7c10.5,0,13.6,6.8,13.6,15.7V396.7z M220.6,377h-3.3c-7.3,0-11.6,3-11.6,12.3v1.1c0,5.7,1.7,10.5,6.8,10.5
		c6.1,0,8-4.9,8-14.4V377z"/>
	<path class="st0" d="M239.9,321.9h7.8v12.4h-7.8V321.9z M239.9,345.2h7.7V407h-7.7V345.2z"/>
	<path class="st0" d="M259.4,407v-85.1h7.7V407H259.4z"/>
</g>
<g>
	<path class="st0" d="M299.5,388.8v2.7c0,6.6,2.7,9.7,7.2,9.7c5.1,0,7.1-3.2,7.1-9.3c0-6.5-2-9.3-8.9-13.9
		c-8.2-5.5-11.9-9.7-11.9-18.3c0-8.9,4-15.6,14-15.6c10.7,0,13.9,7.1,13.9,15.8v2.9h-7.7v-3.3c0-5.5-1.5-8.8-6.3-8.8
		c-4.4,0-6.2,3-6.2,8.2s1.6,7.4,7.9,11.6c8.7,5.7,13,10.1,13,20.2c0,11.1-4.8,17.1-15.2,17.1c-11.6,0-14.6-7.9-14.6-16.3v-2.8H299.5
		z"/>
	<path class="st0" d="M330.3,363c0-8.4,0-13.9-0.1-17.8h7.3c0.2,1.3,0.4,3.7,0.4,6.7c1.5-4.1,4.8-7.7,11.2-7.7
		c8.4,0,12.4,5.6,12.4,17.8v26.4c0,13.6-5.4,19.5-13.3,19.5c-6.3,0-8.9-3.3-10.2-6.2v26.1h-7.7V363z M338,385.6
		c0,7.4,1,15.1,8.2,15.1c5.4,0,7.6-4.3,7.6-12.1v-26.4c0-7.9-2.9-10.8-6.9-10.8c-7.1,0-8.8,6.1-8.8,14.3V385.6z"/>
	<path class="st0" d="M399.1,396.7c0,4.3,0.1,8.5,0.2,10.2h-7.2c-0.4-1.6-0.6-4-0.6-5.1c-2,4.8-5.8,6.1-10.1,6.1
		c-8.8,0-12.3-7.8-12.3-17.3v-1.1c0-13.8,8.3-18.9,19.3-18.9h2.9v-10.2c0-5.7-1-9.5-6.1-9.5c-5,0-6.5,3.9-6.5,8.9v1.8H371v-1.7
		c0-8.5,3.4-15.7,14.4-15.7c10.5,0,13.6,6.8,13.6,15.7V396.7z M391.5,377h-3.3c-7.3,0-11.6,3-11.6,12.3v1.1c0,5.7,1.7,10.5,6.8,10.5
		c6.1,0,8-4.9,8-14.4V377z"/>
	<path class="st0" d="M438.6,387.7v0.9c0,10.5-2.7,19.4-14.9,19.4c-11.6,0-14.6-8-14.6-20.5v-24.7c0-10.5,3.9-18.5,15.1-18.5
		c12.1,0,14.4,8.9,14.4,17.2v2.6h-7.7V362c0-5.8-1-11.1-6.8-11.1c-5.1,0-7.2,3.8-7.2,11.6v26.4c0,6,1.2,12.3,6.9,12.3
		c5.1,0,7.1-3.4,7.1-11.8v-1.7H438.6z"/>
	<path class="st0" d="M453.9,377.5v10.4c0,6.5,1.2,13.4,7.7,13.4c6.1,0,7.3-4.9,7.3-11.2v-0.5h7.6v0.5c0,7.3-1.7,17.9-14.9,17.9
		c-12.3,0-15.4-8.2-15.4-20.7v-23.6c0-9.6,3.4-19.4,15.5-19.4c11.6,0,14.9,8.8,14.9,19.4v13.9H453.9z M469.1,371v-8
		c0-5.7-0.9-12.1-7.6-12.1c-6.2,0-7.7,5.4-7.7,12.2v7.9H469.1z"/>
	<path class="st0" d="M484.9,407v-16.6h7.8V407H484.9z"/>
</g>
<g>
	<path class="st0" d="M43.7,486.2h3.5v33.2h9.1l-0.4,3.1H43.7V486.2z"/>
	<path class="st0" d="M72.5,502.5v11.7c0,6-2.8,8.6-7.1,8.6s-6.9-2.5-6.9-8.4v-11.9c0-5.2,2.7-8,7.1-8
		C70.2,494.5,72.5,497.4,72.5,502.5z M62,502.5v12.1c0,3.1,1.1,5.2,3.5,5.2c2.2,0,3.5-1.5,3.5-5.2v-12.1c0-2.8-1-4.9-3.4-4.9
		C63.1,497.5,62,499.3,62,502.5z"/>
	<path class="st0" d="M89.4,513.8v0.4c0,4.7-1.2,8.6-6.6,8.6c-5.2,0-6.5-3.6-6.5-9.1v-11c0-4.7,1.7-8.2,6.7-8.2c5.4,0,6.4,4,6.4,7.7
		v1.1H86v-0.9c0-2.6-0.4-4.9-3-4.9c-2.3,0-3.2,1.7-3.2,5.2v11.8c0,2.7,0.5,5.5,3.1,5.5c2.3,0,3.1-1.5,3.1-5.3v-0.8H89.4z"/>
	<path class="st0" d="M105.3,517.8c0,1.9,0.1,3.8,0.1,4.6h-3.2c-0.2-0.7-0.3-1.8-0.3-2.3c-0.9,2.1-2.6,2.7-4.5,2.7
		c-3.9,0-5.5-3.5-5.5-7.7v-0.5c0-6.1,3.7-8.4,8.6-8.4h1.3v-4.6c0-2.5-0.4-4.2-2.7-4.2c-2.2,0-2.9,1.7-2.9,4v0.8h-3.4v-0.8
		c0-3.8,1.5-7,6.4-7c4.7,0,6.1,3,6.1,7V517.8z M102,509h-1.5c-3.3,0-5.2,1.4-5.2,5.5v0.5c0,2.6,0.8,4.7,3,4.7c2.7,0,3.6-2.2,3.6-6.4
		V509z"/>
	<path class="st0" d="M107.8,494.9h3.2v-6.8h3.4v6.8h4v3.1h-4v19c0,1.4,0.3,2.9,2,2.9c0.5,0,1.4-0.1,1.8-0.2v2.7
		c-0.8,0.3-2,0.4-2.9,0.4c-2.4,0-4.3-1.1-4.3-5.2V498h-3.2V494.9z"/>
	<path class="st0" d="M123.8,509.3v4.6c0,2.9,0.5,6,3.4,6c2.7,0,3.3-2.2,3.3-5v-0.2h3.4v0.2c0,3.3-0.8,8-6.6,8
		c-5.5,0-6.8-3.6-6.8-9.2v-10.5c0-4.3,1.5-8.6,6.9-8.6c5.2,0,6.6,3.9,6.6,8.6v6.2H123.8z M130.6,506.4v-3.6c0-2.5-0.4-5.4-3.4-5.4
		c-2.8,0-3.4,2.4-3.4,5.4v3.5H130.6z"/>
	<path class="st0" d="M151.4,484.5v30.9c0,3,0,5.4,0.1,6.9h-3.3c-0.1-0.5-0.2-2-0.2-2.7c-0.7,1.6-1.9,3.1-4.8,3.1
		c-4.6,0-5.8-3.6-5.8-8.8v-11.4c0-4.9,2-8.1,6.2-8.1c2.4,0,3.7,1.1,4.3,2.1v-12H151.4z M141,514c0,3.7,1,5.6,3.3,5.6
		c3,0,3.7-2.9,3.7-6.8v-9.2c0-3-0.3-5.9-3.6-5.9c-2.3,0-3.4,2-3.4,5.1V514z"/>
	<path class="st0" d="M164,484.5h3.5v5.5H164V484.5z M164,494.9h3.4v27.5H164V494.9z"/>
	<path class="st0" d="M172.7,503.2c0-5.5,0-7-0.1-8.4h3.3c0.1,0.6,0.2,1.5,0.2,2.8c0.8-2.1,2.5-3.3,5-3.3c2.9,0,5.4,1.6,5.4,6.7
		v21.3H183v-20.6c0-2.7-0.9-4.1-3-4.1c-2.4,0-3.9,1.1-3.9,6.7v18h-3.4V503.2z"/>
	<path class="st0" d="M198.9,486.2h7.8c7.7,0,9.5,4,9.5,10.7v13.9c0,5.5-0.9,11.6-9.5,11.6h-7.8V486.2z M204.5,517.6h1.8
		c3.7,0,4.2-2.3,4.2-6.1v-15.1c0-3.3-0.5-5.4-4.2-5.4h-1.8V517.6z"/>
	<path class="st0" d="M236.2,502.9v10.8c0,6-3,9.1-8.2,9.1c-5.5,0-8.2-3.1-8.2-9.1v-11.1c0-6.1,3.5-8.8,8.4-8.8
		C233.2,493.9,236.2,497,236.2,502.9z M225.4,502.6V514c0,2.2,0.7,3.9,2.7,3.9c1.9,0,2.6-1.4,2.6-4v-11.3c0-2.2-0.6-3.7-2.6-3.7
		C226.2,498.8,225.4,500.1,225.4,502.6z"/>
	<path class="st0" d="M244.1,494.3c1.7,13.6,2.1,17,2.3,20.2h0.1c0.3-3.5,1.3-8,3.2-20.2h5.2c2,12.5,2.9,16.8,3.1,20.3h0.1
		c0.3-3,0.4-5.8,2.4-20.3h5.6l-5.4,28.1h-5.4c-1.3-8.1-2.7-14.7-3.1-18.8h-0.1c-0.3,3.9-1.7,10.1-3.3,18.8h-5.5l-5.1-28.1H244.1z"/>
	<path class="st0" d="M268.6,503c0-5.7,0-7.4-0.1-8.7h5.3c0.1,0.7,0.2,1.8,0.2,2.5c0.8-1.6,2.3-3,5.2-3c3.4,0,5.8,2.1,5.8,7.4v21.2
		h-5.6v-20.1c0-2.6-0.9-3.4-2.4-3.4c-2,0-2.8,1-2.8,4.9v18.6h-5.6V503z"/>
	<path class="st0" d="M287.2,494.3h3v-6.7h5.6v6.7h3.5v4.9h-3.5v16.6c0,1.3,0.2,2.4,1.8,2.4c0.5,0,1.2-0.1,1.5-0.2v4.2
		c-0.9,0.5-2.3,0.6-3.4,0.6c-3.5,0-5.5-1.1-5.5-6v-17.6h-3V494.3z"/>
	<path class="st0" d="M317.7,502.9v10.8c0,6-3,9.1-8.2,9.1c-5.5,0-8.2-3.1-8.2-9.1v-11.1c0-6.1,3.5-8.8,8.4-8.8
		C314.7,493.9,317.7,497,317.7,502.9z M306.9,502.6V514c0,2.2,0.7,3.9,2.7,3.9c1.9,0,2.6-1.4,2.6-4v-11.3c0-2.2-0.6-3.7-2.6-3.7
		C307.7,498.8,306.9,500.1,306.9,502.6z"/>
	<path class="st0" d="M325.6,494.3c1.7,13.6,2.1,17,2.3,20.2h0.1c0.3-3.5,1.3-8,3.2-20.2h5.2c2,12.5,2.9,16.8,3.1,20.3h0.1
		c0.3-3,0.4-5.8,2.4-20.3h5.6l-5.4,28.1h-5.4c-1.3-8.1-2.7-14.7-3.1-18.8h-0.1c-0.3,3.9-1.7,10.1-3.3,18.8h-5.5l-5.1-28.1H325.6z"/>
	<path class="st0" d="M350.1,503c0-5.7,0-7.4-0.1-8.7h5.3c0.1,0.7,0.2,1.8,0.2,2.5c0.8-1.6,2.3-3,5.2-3c3.4,0,5.8,2.1,5.8,7.4v21.2
		h-5.6v-20.1c0-2.6-0.9-3.4-2.4-3.4c-2,0-2.8,1-2.8,4.9v18.6h-5.6V503z"/>
	<path class="st0" d="M378.4,486.2h7.4c6.3,0,8.7,2.9,8.7,8.2v1.4c0,5.1-1.7,6.6-3.4,7.3c1.6,0.7,4.1,2,4.1,7.3v2.8
		c0,6.1-2.6,9.3-8.9,9.3h-7.9V486.2z M385.2,500.9c3.1,0,4.1-1,4.1-4.6v-1.4c0-3-1.1-4.2-3.7-4.2h-1.7v10.1H385.2z M383.8,517.8h1.8
		c3.3,0,4-1.4,4-4.9v-2.4c0-3.5-0.9-5-4.4-5h-1.4V517.8z"/>
	<path class="st0" d="M403.7,509.9v4.1c0,2.2,0.5,4.1,2.7,4.1c2.2,0,2.5-2,2.5-4V514h5.4v0.1c0,2.9-0.6,8.7-7.8,8.7
		c-7.2,0-8.2-4.5-8.2-10.1v-9.2c0-3.9,1.2-9.7,8.2-9.7c6,0,7.9,4.1,7.9,9.6v6.4H403.7z M409,505.5v-2.9c0-2.6-0.6-4-2.6-4
		c-1.8,0-2.7,1.3-2.7,4v2.9H409z"/>
	<path class="st0" d="M418.2,522.4v-37.8h5.6v37.8H418.2z"/>
	<path class="st0" d="M428.4,522.4v-37.8h5.6v37.8H428.4z"/>
	<path class="st0" d="M438.7,494.3h5.6v28.1h-5.6V494.3z M438.7,484.6h5.6v6h-5.6V484.6z"/>
	<path class="st0" d="M449,503c0-5.7,0-7.4-0.1-8.7h5.3c0.1,0.7,0.2,1.8,0.2,2.5c0.8-1.6,2.3-3,5.2-3c3.4,0,5.8,2.1,5.8,7.4v21.2
		h-5.6v-20.1c0-2.6-0.9-3.4-2.4-3.4c-2,0-2.8,1-2.8,4.9v18.6H449V503z"/>
	<path class="st0" d="M485.8,520.8c0,6.2-0.6,11.4-8.6,11.4c-6.7,0-7.8-4.2-7.8-7.3v-0.1h5.6v0.1c0,0.8,0.3,2.7,2.5,2.7
		c2.3,0,2.7-1.7,2.7-5.3v-3c-0.7,1.6-2.3,2.6-4.6,2.6c-5.1,0-6.2-4-6.2-8.8v-10.6c0-3.9,1.4-8.6,6.8-8.6c2.9,0,4.2,1.4,4.6,2.9
		c0-0.9,0.2-2,0.3-2.5h4.8c-0.1,1.7-0.1,4.1-0.1,7.1V520.8z M474.9,512.6c0,2.8,0.7,4.3,2.5,4.3c2.4,0,2.8-1.9,2.8-5.3v-8.2
		c0-2.4-0.2-4.5-2.5-4.5c-1.8,0-2.8,1.1-2.8,3.9V512.6z"/>
	<path class="st0" d="M490.4,484.6h5.6v12c0.9-1.6,2.4-2.8,5.2-2.8c4.3,0,5.6,3.3,5.6,7.3v21.3h-5.6v-19.8c0-2.1-0.4-3.7-2.4-3.7
		c-2.2,0-2.8,1.4-2.8,4.6v18.9h-5.6V484.6z"/>
	<path class="st0" d="M526.1,516.6c0,1.8,0.1,4.7,0.1,5.8h-5.1c-0.1-0.5-0.3-1.7-0.3-2.1c-1,1.7-2.5,2.5-4.7,2.5
		c-4.2,0-5.9-3.9-5.9-8.1v-0.5c0-6.9,4.7-8.8,9.7-8.8h0.7v-3.6c0-2.2-0.3-3.4-2-3.4c-1.7,0-2.1,1.3-2.1,3v0.4h-5.5v-0.3
		c0-4.1,1.6-7.7,7.8-7.7c5.4,0,7.3,3,7.3,7.5V516.6z M520.7,509.6h-0.9c-2.5,0-4.2,1-4.2,4.5v0.4c0,2,0.7,3.4,2.4,3.4
		c1.9,0,2.7-1.3,2.7-5V509.6z"/>
	<path class="st0" d="M530.8,502.4c0-5.6,0-6.8-0.1-8.1h5.3c0.2,0.9,0.2,1.5,0.2,2.5c1-1.9,2.7-2.9,4.9-2.9c2.3,0,3.8,1,4.5,3
		c1-1.5,2.4-3,5.4-3c3.1,0,5.6,1.6,5.6,7.1v21.5h-5.6v-20.5c0-2-0.5-3-2.1-3c-2,0-2.4,1.5-2.4,4.3v19.2h-5.6V502
		c0-2.5-0.8-3.1-2.1-3.1c-2,0-2.4,1.5-2.4,4.2v19.3h-5.6V502.4z"/>
</g>
<text transform="matrix(1 0 0 1 -877.7233 114.4964)"><tspan x="0" y="0" class="st0" style="font-family:'AcuminProExtraCond-Regular'; font-size:121.8591px;">A shared creative </tspan><tspan x="8" y="146.2" class="st0" style="font-family:'AcuminProExtraCond-Regular'; font-size:121.8591px;">office </tspan><tspan x="200.4" y="146.2" class="st0" style="font-family:'AbrilFatface-Regular'; font-size:121.8591px;">&amp;</tspan><tspan x="300.6" y="146.2" class="st0" style="font-family:'AcuminProExtraCond-Regular'; font-size:121.8591px;"> flexible</tspan><tspan x="83.4" y="292.5" class="st0" style="font-family:'AcuminProExtraCond-Regular'; font-size:121.8591px;">retail space.</tspan><tspan x="19.4" y="407.9" class="st0" style="font-family:'AcuminProExtraCond-Regular'; font-size:54.2662px;">Located in </tspan><tspan x="174.1" y="407.9" class="st0" style="font-family:'AcuminProExtraCond-Bold'; font-size:54.2662px;">Downtown Bellingham</tspan></text>
</svg>
