<?xml version="1.0" encoding="iso-8859-1"?>
<!-- Generator: Adobe Illustrator 19.2.1, SVG Export Plug-In . SVG Version: 6.00 Build 0)  -->
<svg version="1.1" id="happy_place" xmlns="http://www.w3.org/2000/svg" xmlns:xlink="http://www.w3.org/1999/xlink" x="0px"
	 y="0px" viewBox="0 0 777.692 492.308" style="enable-background:new 0 0 777.692 492.308;" xml:space="preserve">
<g>
	<g>
		<path style="fill:#FFFFFF;" d="M120.506,323.401c37.912,0.124,60.269,8.668,60.166,40.328
			c-0.111,34.281-26.559,43.069-65.68,42.941l-1.614-0.004l-0.176,54.044l25.207,0.082l-0.013,3.83l-77.637-0.254l0.013-3.83
			l13.107,0.042l0.434-133.496l-13.107-0.042l0.013-3.833L120.506,323.401z M113.391,402.832l4.236,0.013
			c16.94,0.055,21.413-11.626,21.488-35.02l0.031-9.678c0.076-22.787-4.737-30.868-20.063-30.918l-5.447-0.017L113.391,402.832z"/>
		<path style="fill:#FFFFFF;" d="M266.91,323.88l-0.015,4.437l-21.377-0.071l-0.43,132.285l7.26,0.025
			c25.006,0.08,36.155-18.031,48.133-42.594l4.236,0.015l-3.986,47.174l-106.876-0.348l0.015-4.437l11.896,0.038l0.43-132.285
			l-11.896-0.038l0.015-4.437L266.91,323.88z"/>
		<path style="fill:#FFFFFF;" d="M386.392,418.041l-39.927-0.13l-15.668,43.507l15.122,0.048l-0.013,3.83l-30.853-0.101l0.013-3.83
			l9.478,0.031l51.873-138.369l16.535,0.052l50.364,138.703l9.277,0.031l-0.013,3.83l-65.94-0.216l0.013-3.83l14.316,0.048
			L386.392,418.041z M348.293,413.478l36.499,0.12l-17.37-52.891L348.293,413.478z"/>
		<path style="fill:#FFFFFF;" d="M497.409,386.74l-0.052,15.932c-0.122,37.104,10.488,61.136,32.469,61.207
			c16.333,0.052,29.495-16.843,40.875-43.022l3.629,0.013l-1.559,44.964l-2.216-0.006c-1.404-2.626-2.206-4.042-5.434-4.053
			c-6.855-0.021-17.964,6.196-40.147,6.122c-42.752-0.139-68.893-22.81-68.736-71.007c0.157-48.801,28.475-74.52,69.814-74.386
			c20.972,0.069,30.631,6.353,37.689,6.376c3.226,0.01,4.036-1.4,5.457-4.017l2.219,0.008l1.469,43.763l-3.629-0.013
			c-11.009-24.838-23.054-42.019-40.397-42.076C508.493,326.482,497.543,344.998,497.409,386.74z"/>
		<path style="fill:#FFFFFF;" d="M700.478,325.292l1.887,39.935l-3.629-0.01c-11.006-26.454-20.453-35.559-44.855-35.639
			l-7.058-0.023l-0.204,62.311l6.857,0.021c13.107,0.044,21.614-11.019,25.092-26.334l3.024,0.01l-0.193,59.689l-3.427-0.01
			c-4.775-20.183-12.413-28.072-26.53-28.118l-4.84-0.015l-0.21,64.731l7.663,0.025c25.61,0.082,43.413-17.404,49.535-39.364
			l4.032,0.015l-1.755,43.954l-110.706-0.361l0.015-4.437l11.896,0.04l0.43-132.285l-11.896-0.04l0.015-4.437L700.478,325.292z"/>
	</g>
	<g>
		<path style="fill:#FFFFFF;" d="M75.04,24.41l23.815,0.078l-0.338,104.19l54.329,0.177l0.338-104.19l23.444,0.076l-0.81,248.57
			l-23.444-0.076l0.4-122.797l-54.329-0.177l-0.4,122.797L74.23,272.98L75.04,24.41z"/>
		<path style="fill:#FFFFFF;" d="M242.695,191.292l-12.922,82.195l-23.815-0.076l41.745-248.438l33.859,0.111l41.982,248.71
			l-24.931-0.082l-13.128-82.279L242.695,191.292z M282.581,169.466c-9.487-57.71-15.67-100.52-17.833-122.855l-1.115-0.002
			c-0.806,18.973-10.291,75.503-17.517,122.74L282.581,169.466z"/>
		<path style="fill:#FFFFFF;" d="M353.756,25.319l43.165,0.14c36.467,0.12,53.525,18.781,53.397,57.852l-0.049,15.256
			c-0.12,36.467-10.629,64.342-55.283,64.195l-17.861-0.058l-0.363,111.263l-23.815-0.078L353.756,25.319z M377.192,142.239
			l15.629,0.049c29.396,0.097,33.548-17.752,33.635-44.171l0.043-13.396c0.066-20.465-4.711-38.712-31.132-38.799l-17.861-0.058
			L377.192,142.239z"/>
		<path style="fill:#FFFFFF;" d="M484.74,25.746l43.165,0.14c36.467,0.12,53.525,18.781,53.397,57.852l-0.049,15.256
			c-0.12,36.467-10.629,64.342-55.283,64.195l-17.861-0.058l-0.363,111.263l-23.815-0.078L484.74,25.746z M508.176,142.666
			l15.629,0.052c29.396,0.095,33.548-17.752,33.635-44.171l0.043-13.396c0.066-20.465-4.711-38.714-31.132-38.801l-17.861-0.058
			L508.176,142.666z"/>
		<path style="fill:#FFFFFF;" d="M645.794,274.843l0.307-93.773c0.008-2.606-0.359-4.465-1.095-6.329L600.089,26.123l26.05,0.085
			c12.499,46.183,27.951,101.303,32.346,123.276h0.371C663.392,126.798,679.95,70.292,692,26.422l24.933,0.08l-46.258,149.439
			c-0.377,1.86-0.757,3.719-0.767,7.067l-0.301,91.913L645.794,274.843z"/>
	</g>
</g>
</svg>
