<?xml version="1.0" standalone="no"?>
<!DOCTYPE svg PUBLIC "-//W3C//DTD SVG 20010904//EN"
 "http://www.w3.org/TR/2001/REC-SVG-20010904/DTD/svg10.dtd">
<svg version="1.0" xmlns="http://www.w3.org/2000/svg"
 width="800.000000pt" height="800.000000pt" viewBox="0 0 800.000000 800.000000"
 preserveAspectRatio="xMidYMid meet">
<metadata>
Created by potrace 1.11, written by Peter Selinger 2001-2013
</metadata>
<g transform="translate(0.000000,800.000000) scale(0.100000,-0.100000)"
fill="#000000" stroke="none">
<path d="M0 2980 l0 -2980 280 0 280 0 0 1053 c0 578 3 1238 7 1465 l6 412
647 0 646 0 -4 -1465 -4 -1465 280 0 280 0 6 203 c3 111 9 1450 12 2975 l6
2772 -279 0 -280 0 -6 -307 c-4 -170 -7 -732 -7 -1250 l0 -943 -513 0 c-283 0
-576 3 -652 7 l-138 6 4 1246 4 1246 -287 3 -288 2 0 -2980z"/>
<path d="M2940 5871 l0 -81 275 0 275 0 0 -1023 c0 -563 -3 -1834 -7 -2825
l-6 -1802 -279 0 -278 0 0 -70 0 -70 1645 0 1645 0 0 65 0 65 -530 0 -530 0 0
1139 0 1138 268 7 c418 11 692 34 966 82 1103 193 1616 747 1616 1744 0 695
-251 1145 -785 1406 -342 166 -763 254 -1365 283 -113 6 -814 13 -1557 17
l-1353 7 0 -82z m2751 -129 c298 -81 452 -294 514 -706 48 -324 47 -1176 -1
-1556 -55 -431 -197 -692 -444 -814 -129 -63 -198 -77 -424 -83 l-189 -5 6 92
c4 51 7 770 7 1598 l0 1504 228 -4 c188 -4 240 -9 303 -26z"/>
</g>
</svg>
